:SAMPLES-PER-SECOND 30
:FULLY-SPECIFIED
:DEGREES
672
root  -0.859556 39.5401 30.5057 -179.062 -4.22285 179.483
RightUpLeg  -14.4871 -7.53497 -2.28911
RightLeg  24.7336 -0.620484 -0.542314
RightFoot  -11.8402 -0.0634958 3.44487
RightToes  -1.33073e-015 0 -3.6325e-017
Spine  13.8794 0.248963 -0.561066
Spine1  11.327 0.86008 -2.28985
HEad  38.1607 6.42783 -175.332
LeftShoulder1  -0.00737492 3.52917 -23.4112
LeftArm  -13.5174 0.0456739 -40.314
LeftForeArm  92.0377 -77.8481 -114.487
LeftHand  -0.107516 3.04815 4.64566
RightShoulder  -0.129537 -3.91194 23.512
RightArm  -13.857 -10.55 39.9752
RightForeArm  67.2969 78.3169 100.171
RightHand  -0.20586 4.35101 -2.73562
LeftUpLeg  -13.1873 10.0319 5.29817
LeftLeg  12.6699 1.1625 -0.382739
LeftFoot  0.0860938 0.328175 -3.28495
LeftToes  -1.93726e-010 2.42366e-011 2.16268e-013
673
root  -1.25658 39.6026 30.467 -178.648 -3.76278 178.795
RightUpLeg  -13.9051 -7.86259 -0.0172043
RightLeg  19.8922 1.28468 0.276831
RightFoot  -12.1954 -0.0537436 4.59806
RightToes  -1.33073e-015 0 -3.6325e-017
Spine  13.376 0.0783092 -0.245275
Spine1  11.4945 0.998364 -3.1911
HEad  38.4882 7.17526 -175.291
LeftShoulder1  -0.0134506 3.54877 -23.6074
LeftArm  -14.1893 1.33418 -39.7944
LeftForeArm  91.8994 -77.8259 -114.599
LeftHand  -0.0772206 3.26964 3.43923
RightShoulder  -0.174477 -4.05757 23.7464
RightArm  -13.5043 -9.57012 40.1045
RightForeArm  70.4994 78.1973 103.205
RightHand  -0.201978 4.00194 -2.73899
LeftUpLeg  -12.7974 9.92142 4.24016
LeftLeg  11.6619 1.8869 -0.878914
LeftFoot  0.0537516 0.282656 -2.83704
LeftToes  -1.93726e-010 2.42366e-011 2.16268e-013
674
root  -1.67113 39.6681 30.4218 -178.509 -3.87652 178.144
RightUpLeg  -13.4127 -8.82408 1.42065
RightLeg  16.5316 3.66016 1.17854
RightFoot  -9.28317 -0.025448 0.419671
RightToes  -1.33073e-015 0 -3.6325e-017
Spine  13.1685 -0.197382 0.598783
Spine1  11.5366 0.887161 -3.51419
HEad  38.8168 8.0652 -175.361
LeftShoulder1  0.00396917 3.49058 -24.0723
LeftArm  -14.5314 2.41847 -39.4173
LeftForeArm  90.7582 -77.9704 -113.157
LeftHand  -0.0654855 2.83533 2.33164
RightShoulder  -0.216633 -4.19673 23.7876
RightArm  -13.6118 -9.04278 40.0487
RightForeArm  76.5143 77.955 108.176
RightHand  -0.119092 3.02634 -1.87565
LeftUpLeg  -12.2122 9.01335 2.98316
LeftLeg  10.5943 2.85529 -0.860972
LeftFoot  -0.0120793 0.293365 -2.9567
LeftToes  -1.93726e-010 2.42366e-011 2.16268e-013
675
root  -2.14559 39.6865 30.4206 -178.867 -4.72114 177.502
RightUpLeg  -13.3821 -7.40771 0.803316
RightLeg  16.6524 0.716247 0.353923
RightFoot  -5.41384 0.257565 -6.16414
RightToes  -1.33073e-015 0 -3.6325e-017
Spine  13.4269 -0.795737 3.00987
Spine1  11.8246 0.732778 -4.39438
HEad  39.2448 9.41401 -175.654
LeftShoulder1  0.0599243 3.30817 -24.2664
LeftArm  -14.6711 2.48461 -39.6845
LeftForeArm  85.6519 -78.2854 -108.668
LeftHand  -0.0804307 2.75967 2.98734
RightShoulder  -0.205491 -4.16545 23.5489
RightArm  -14.2972 -8.99812 39.9367
RightForeArm  82.8734 77.3768 114.902
RightHand  -0.157054 3.20157 -2.34795
LeftUpLeg  -11.9196 9.27577 1.29772
LeftLeg  10.8288 2.01848 -0.728923
LeftFoot  -0.763877 0.2619 -2.76817
LeftToes  -1.93726e-010 2.42366e-011 2.16268e-013
676
root  -2.66041 39.4976 30.4722 -179.448 -6.21339 176.988
RightUpLeg  -13.8408 -8.70758 -0.953296
RightLeg  19.0987 0.796504 0.237341
RightFoot  -5.53049 0.172542 -4.07379
RightToes  -1.33073e-015 0 -3.6325e-017
Spine  14.236 -1.53831 5.94506
Spine1  11.7604 0.575533 -5.45807
HEad  39.7469 10.4882 -176.867
LeftShoulder1  0.102354 3.17225 -24.692
LeftArm  -13.6445 1.70081 -40.0997
LeftForeArm  78.9501 -78.6276 -102.257
LeftHand  -0.0779579 2.93446 3.03855
RightShoulder  -0.234395 -4.27617 22.9918
RightArm  -15.5682 -9.51193 39.3507
RightForeArm  91.9464 76.3363 123.467
RightHand  -0.104998 2.58713 -1.73666
LeftUpLeg  -13.2673 9.20863 -0.655966
LeftLeg  14.566 0.646309 0.0303611
LeftFoot  -3.44661 0.22744 -2.9672
LeftToes  -1.93726e-010 2.42366e-011 2.16268e-013
677
root  -3.20392 39.2462 30.5445 -179.924 -7.26823 177.526
RightUpLeg  -14.5607 -12.2874 -1.4924
RightLeg  21.7086 3.29507 1.25119
RightFoot  -6.65128 0.0684301 -2.80575
RightToes  -1.33073e-015 0 -3.6325e-017
Spine  14.9771 -2.14269 10.0505
Spine1  11.3425 0.773861 -6.72569
HEad  40.4459 10.9574 -178.264
LeftShoulder1  0.151215 3.00784 -24.1503
LeftArm  -13.0118 1.66124 -42.1902
LeftForeArm  75.9637 -78.7948 -98.41
LeftHand  -0.0852987 2.81127 3.24128
RightShoulder  -0.200881 -4.17409 22.387
RightArm  -16.7333 -10.2709 37.7327
RightForeArm  97.2065 75.129 129.896
RightHand  -0.145966 2.55612 -2.34034
LeftUpLeg  -15.446 9.48243 -0.983063
LeftLeg  19.954 -1.49613 -0.222308
LeftFoot  -7.57576 0.193377 -5.09058
LeftToes  -1.93726e-010 2.42366e-011 2.16268e-013
678
root  -3.64004 39.0894 30.5333 179.957 -7.16897 177.64
RightUpLeg  -15.2821 -12.6322 -2.07911
RightLeg  23.499 3.68172 1.51852
RightFoot  -7.05657 0.0646409 -2.99268
RightToes  -1.33073e-015 0 -3.6325e-017
Spine  15.021 -1.7246 11.363
Spine1  11.216 1.03138 -5.51568
HEad  40.0884 10.1882 -179.878
LeftShoulder1  0.186894 2.90599 -25.0242
LeftArm  -11.544 1.39259 -42.178
LeftForeArm  71.7787 -78.8755 -94.3853
LeftHand  -0.102888 2.59725 3.80367
RightShoulder  -0.12672 -3.93493 21.3565
RightArm  -17.0509 -10.3534 35.7796
RightForeArm  99.1854 74.3546 133.071
RightHand  -0.162513 1.91067 -2.7631
LeftUpLeg  -16.8288 10.2213 -0.851215
LeftLeg  23.7146 -3.28987 -1.26127
LeftFoot  -10.7139 0.129643 -9.77876
LeftToes  -1.93726e-010 2.42366e-011 2.16268e-013
679
root  -4.03857 39.0418 30.4825 179.891 -7.16359 177.323
RightUpLeg  -15.4335 -12.0767 -3.17601
RightLeg  24.387 3.35776 1.43397
RightFoot  -7.45152 0.0255299 -2.23783
RightToes  -1.33073e-015 0 -3.6325e-017
Spine  14.7526 -1.73136 11.5189
Spine1  11.3249 0.841244 -4.86184
HEad  39.744 7.89558 179.368
LeftShoulder1  0.182312 2.92806 -25.4326
LeftArm  -10.9662 1.86908 -41.8115
LeftForeArm  69.3454 -78.8737 -92.4896
LeftHand  -0.100526 2.50253 3.60107
RightShoulder  -0.125018 -3.92373 21.6227
RightArm  -16.4307 -8.66648 34.5049
RightForeArm  97.3197 74.7339 131.402
RightHand  -0.198561 1.67371 -3.42631
LeftUpLeg  -17.9819 10.6373 -0.65934
LeftLeg  26.8368 -4.45185 -2.09625
LeftFoot  -11.5693 0.0513997 -10.0489
LeftToes  -1.93726e-010 2.42366e-011 2.16268e-013
